<svg width="1460" height="600" viewBox="0 0 1460 600" fill="none" xmlns="http://www.w3.org/2000/svg">
<path d="M1460 600H0V-6.10352e-05H1460V600ZM134.172 398.243C99.0492 400.98 79.5472 404.007 79.5472 407.188C79.5472 419.485 370.765 429.455 730 429.455C1089.24 429.455 1380.45 419.485 1380.45 407.188C1380.45 405.012 1371.33 402.909 1354.33 400.921V371.497V363.167C1354.33 361.421 1352.78 360.005 1350.86 360.005H1346.94V323.535H1302.5V342.936H1316.36V359.413C1316.36 372.467 1311.92 378.992 1303.05 378.992C1298.25 378.992 1294.94 377.295 1293.12 373.899C1291.3 370.503 1290.4 365.881 1290.4 360.035V292.793C1290.4 290.609 1290.44 288.763 1290.54 287.256C1290.63 285.751 1290.91 284.083 1291.37 282.251C1291.83 280.421 1292.46 278.96 1293.26 277.865C1294.06 276.775 1295.21 275.844 1296.72 275.075C1298.23 274.308 1300.07 273.924 1302.22 273.924C1304.32 273.924 1306.09 274.264 1307.53 274.943C1308.98 275.623 1310.09 276.435 1310.86 277.379C1311.63 278.324 1312.21 279.653 1312.62 281.365C1313.02 283.079 1313.26 284.643 1313.36 286.06C1313.45 287.479 1313.49 289.309 1313.49 291.553V303.336H1346.57V294.033C1346.57 288.719 1346.11 283.92 1345.18 279.637C1344.26 275.356 1342.72 271.399 1340.56 267.767C1338.41 264.135 1335.62 261.109 1332.2 258.685C1328.78 256.265 1324.52 254.376 1319.41 253.016C1314.29 251.659 1308.41 250.979 1301.76 250.979C1294.86 250.979 1288.79 251.763 1283.56 253.327C1278.32 254.892 1273.95 257.092 1270.44 259.927C1266.93 262.761 1264.08 266.336 1261.9 270.645C1259.71 274.957 1258.14 279.681 1257.18 284.82C1256.23 289.959 1255.75 295.776 1255.75 302.273V351.087C1255.75 359.001 1256.48 365.969 1257.92 371.995C1259.37 378.017 1261.69 383.333 1264.9 387.94C1266.76 390.62 1269.01 392.925 1271.66 394.856C1265.95 394.563 1260.01 394.273 1253.91 393.989C1251.16 387.552 1247.56 378.963 1247.5 377.965C1247.41 376.347 1248.09 367.176 1249.13 362.86C1249.73 360.329 1249.21 357.336 1248.67 355.292C1249.21 354.977 1249.5 354.771 1249.5 354.768C1249.5 354.768 1246.13 342.675 1245.28 337.684C1245.28 337.671 1245.28 337.657 1245.28 337.644C1245.27 337.64 1245.27 337.636 1245.27 337.632C1245.27 337.62 1245.27 337.608 1245.27 337.596C1245.27 337.591 1245.27 337.587 1245.27 337.583C1245.26 337.573 1245.26 337.565 1245.26 337.557C1245.26 337.551 1245.26 337.545 1245.26 337.539C1245.26 337.529 1245.26 337.521 1245.25 337.512C1245.25 337.503 1245.25 337.493 1245.25 337.484C1245.25 337.48 1245.25 337.475 1245.25 337.471C1244.49 332.416 1246.37 322.761 1245.64 322.477C1244.75 322.129 1237.48 320.911 1237.48 320.911C1236.81 321.38 1236.12 321.7 1235.43 321.908V253.016H1207.34V323.535L1175.84 253.016H1152V390.244C1151.72 390.235 1151.46 390.228 1151.18 390.22C1145.77 388.731 1138.38 386.607 1137.45 385.867C1136.58 385.183 1132.73 376.108 1132.99 371.328C1133.13 368.864 1133.08 367.003 1132.89 365.628C1132.91 365.623 1132.93 365.619 1132.94 365.613C1132.95 365.611 1132.96 365.608 1132.97 365.607C1133.01 365.593 1133.05 365.581 1133.1 365.569C1133.11 365.565 1133.12 365.563 1133.13 365.559C1133.15 365.555 1133.17 365.549 1133.19 365.544C1133.2 365.539 1133.22 365.535 1133.24 365.529C1133.25 365.525 1133.27 365.52 1133.29 365.516C1133.3 365.511 1133.32 365.505 1133.34 365.5C1133.36 365.495 1133.37 365.491 1133.39 365.485C1133.41 365.48 1133.42 365.475 1133.44 365.469C1133.46 365.465 1133.47 365.46 1133.49 365.456C1133.51 365.449 1133.53 365.443 1133.55 365.437C1133.57 365.433 1133.58 365.429 1133.59 365.425C1133.62 365.416 1133.66 365.405 1133.69 365.396C1133.69 365.396 1133.53 354.791 1131.79 346.323C1131.49 344.816 1131.98 343.271 1133.1 342.181C1133.11 342.177 1133.11 342.173 1133.12 342.169C1133.4 341.899 1133.71 341.6 1134.03 341.291L1134.15 341.173C1134.43 340.9 1134.73 340.616 1135.03 340.323C1135.13 340.229 1135.22 340.136 1135.32 340.041L1135.4 339.969C1135.43 339.94 1135.46 339.912 1135.49 339.883L1135.62 339.756C1135.67 339.704 1135.73 339.652 1135.78 339.6C1136.52 338.883 1137.3 338.131 1138.07 337.393C1138.38 337.093 1138.69 336.795 1139 336.501C1141.21 334.38 1143.13 332.54 1143.55 332.179C1144.62 331.244 1148.04 314.557 1148.04 314.557L1147.52 314.525C1148.03 312.473 1148.15 310.249 1148.55 308.195C1148.87 306.591 1148.88 305.483 1147.95 304.109C1147.43 303.345 1145.97 301.652 1145.19 301.652C1145.04 301.652 1144.91 301.717 1144.83 301.867C1144.65 302.112 1144.88 302.667 1145.24 303.287C1144.65 302.551 1143.99 301.944 1143.42 301.944C1143.29 301.944 1143.16 301.977 1143.05 302.051C1142.01 302.677 1145.08 305.893 1145.27 306.725C1144.66 305.705 1143.23 303.799 1142.41 303.799C1142.33 303.799 1142.26 303.816 1142.19 303.852C1141.46 304.693 1143.38 306.669 1144.14 307.923C1143.78 307.459 1142.53 306.049 1141.85 306.049C1141.67 306.049 1141.54 306.148 1141.46 306.392C1141.14 307.496 1143.29 309.111 1143.54 310.363C1143.76 311.447 1143.84 312.945 1143.63 314.284L1143.03 314.245C1143.03 314.245 1139.1 324.387 1137.86 326.981C1137.73 327.257 1137.63 327.448 1137.56 327.532C1137.22 327.997 1134.82 330.181 1132.55 332.167C1132.55 332.167 1132.55 332.167 1132.55 332.165C1131.3 333.259 1130.09 334.292 1129.27 334.945V253.016H1095.46V314.933L1091.05 315.431C1091.05 315.431 1093.49 329.773 1094.77 334.713C1094.77 334.728 1094.77 334.741 1094.78 334.755C1094.78 334.756 1094.78 334.757 1094.78 334.759C1094.96 335.469 1095.12 335.98 1095.25 336.216C1095.29 336.305 1095.37 336.408 1095.46 336.524V376.451C1093.9 377.749 1092.71 378.824 1092.21 379.468C1091.64 380.192 1090.92 384.04 1090.24 388.645C1081.8 388.453 1073.2 388.267 1064.5 388.088C1068.15 384.199 1070.75 379.499 1072.32 373.987C1073.95 368.229 1074.76 361.068 1074.76 352.503V299.527C1074.76 291.021 1073.96 283.949 1072.36 278.309C1070.76 272.669 1067.99 267.9 1064.05 264.001C1060.11 260.104 1054.82 257.3 1048.2 255.585C1046.81 255.227 1045.35 254.905 1043.82 254.621C1044.14 252.992 1044.44 251.435 1044.68 249.999C1044.63 249.977 1044.58 249.953 1044.54 249.929C1045.08 246.365 1045.23 243.821 1044.68 243.379C1044.04 242.879 1042.05 242.404 1039.48 241.987C1039.41 241.756 1039.33 241.527 1039.26 241.296C1034.05 240.681 1026.76 240.389 1023.14 240.389C1022.18 240.389 1021.47 240.411 1021.14 240.452C1021.13 240.453 1021.12 240.455 1021.11 240.455C1021 240.468 1020.88 240.475 1020.75 240.475H1020.75C1018.53 240.475 1014.61 238.58 1014.17 238.365C1014.15 238.352 1014.13 238.345 1014.13 238.345L1013.04 238.247C1013.04 238.247 1013.04 238.247 1013.04 238.248L997.109 236.828C991.41 243.175 995.883 252.113 1000.41 253.016H984.687V386.693C978.178 386.599 971.605 386.507 964.989 386.419V317.177H962.236V253.016H934.151V317.177H931.31L902.647 253.016H878.812V294.124C878.068 293.699 877.457 293.337 877.039 293.068C875.33 291.967 870.908 288.688 867.229 285.927C867.888 284.572 868.311 283.693 868.311 283.693C865.409 282.481 862.814 278.98 862.814 278.98C862.814 278.98 862.401 278.907 861.686 278.907C860.699 278.907 859.136 279.045 857.286 279.709V253.016H823.747V320.701L800.188 343.472V253.016H766.745V353.656C766.745 360.153 767.174 365.837 768.038 370.709C768.9 375.581 770.395 380.043 772.519 384.087C772.675 384.385 772.836 384.68 772.999 384.969C767.865 384.959 762.689 384.949 757.523 384.941C757.312 382.164 757.175 380.224 757.188 379.885C757.655 366.737 756.541 357.048 755.741 351.353C756.087 350.953 756.329 350.567 756.443 350.205C756.443 350.205 751.91 339.617 747.62 332.391V312.017H719.627V275.075H752.148V253.016H685.815V384.972C676.371 384.995 666.97 385.023 657.642 385.059C660.002 381.828 661.771 378.137 662.947 373.987C664.578 368.229 665.396 361.068 665.396 352.503V299.527C665.396 291.021 664.596 283.949 662.994 278.309C661.391 272.669 658.62 267.9 654.679 264.001C650.737 260.104 645.455 257.3 638.835 255.585C632.213 253.873 623.883 253.016 613.844 253.016H575.318V301.512C574.439 299.035 572.702 297.391 570.79 296.761C570.79 296.761 568.4 295.653 565.514 295.653C563.878 295.653 562.085 296.008 560.476 297.123C556.029 300.203 556.213 305.883 556.335 309.437C556.459 312.992 555.224 314.888 552.629 317.376C550.035 319.864 549.787 321.877 551.146 327.091C552.506 332.303 553.578 335.227 550.969 337.556C548.108 340.112 545.339 346.639 551.641 351.496C554.081 353.377 556.866 354.381 559.696 354.885C559.503 355.633 559.352 356.445 559.269 357.323C559.087 359.199 559.18 361.457 559.518 364.163C559.942 367.549 560.971 376.425 560.329 381.901C560.205 382.956 560.052 384.247 559.881 385.691C508.248 386.168 459.202 386.857 413.508 387.731C419.63 379.628 422.694 368.209 422.694 353.477V299.26C422.694 283.315 419.105 271.281 411.93 263.16C405.292 255.647 394.63 251.608 379.952 251.047C383.314 250.14 386.362 248.045 388.111 245.267C389.164 245.403 390.245 245.481 391.34 245.481C394.602 245.481 397.961 244.777 400.906 242.764C410.73 236.051 405.233 224.671 400.414 222.027C398.009 220.707 397.607 219.251 398.939 214.425C400.271 209.599 396.785 204.596 393.431 203.271C390.969 202.299 388.805 201.869 387.306 199.352C385.807 196.833 388.648 191.463 383.902 187.485C382.571 186.371 381.017 186.027 379.61 186.027C377.36 186.027 375.484 186.903 375.484 186.903C375.437 186.877 375.39 186.865 375.345 186.865C374.379 186.865 373.973 192.504 373.899 196.792C374.415 197.549 374.874 198.327 375.281 199.121C374.668 199.945 374.238 200.695 374.238 200.695C374.238 200.695 375.704 204.52 375.69 208.476C375.69 208.476 375.689 208.476 375.687 208.477C375.687 208.477 372.153 215.949 370.777 217.972C370.188 218.839 370.744 220.756 371.595 222.927C370.819 224.916 370.072 226.537 369.494 227.204C367.431 229.577 360.691 233.072 360.691 233.072L361.524 234.484H350.628V237.163H363.763C358.216 237.163 344.554 237.163 344.554 237.163C344.554 237.163 344.589 237.444 344.68 237.943C344.198 238.037 343.862 238.203 343.73 238.457C342.766 240.304 330.63 276.799 330.63 276.799L332.617 278.579C332.601 278.636 332.585 278.695 332.569 278.752C330.997 284.511 330.212 291.347 330.212 299.26V353.477C330.212 361.333 330.997 368.155 332.569 373.943C333.83 378.587 335.722 382.744 338.25 386.417C337.743 387.364 337.186 388.388 336.602 389.455C294.593 390.548 256.565 391.813 223.45 393.219C221.205 385.775 218.693 377.549 218.173 376.301C217.192 373.949 210.161 342.523 210.161 342.523L192.745 343.549C192.745 343.549 193.063 344.235 193.613 345.416H167.796V360.832C167.796 363.076 167.764 364.877 167.704 366.235C167.641 367.595 167.411 369.189 167.01 371.02C166.61 372.851 166.041 374.268 165.301 375.272C164.563 376.276 163.469 377.148 162.022 377.884C160.574 378.624 158.834 378.992 156.801 378.992C152.304 378.992 149.257 377.441 147.655 374.343C146.053 371.241 145.253 366.739 145.253 360.832V292.351C145.253 290.167 145.299 288.335 145.392 286.859C145.484 285.381 145.761 283.744 146.224 281.941C146.686 280.14 147.3 278.723 148.072 277.689C148.841 276.656 149.966 275.771 151.444 275.031C152.922 274.293 154.707 273.924 156.801 273.924C158.895 273.924 160.682 274.293 162.16 275.031C163.638 275.771 164.731 276.612 165.44 277.556C166.148 278.501 166.688 279.903 167.057 281.764C167.426 283.624 167.641 285.145 167.704 286.327C167.764 287.508 167.796 289.249 167.796 291.553V306.348H200.871V293.413C200.871 286.859 200.147 281.1 198.699 276.139C197.252 271.177 194.881 266.748 191.585 262.851C188.29 258.952 183.733 255.999 177.913 253.991C172.092 251.984 165.055 250.979 156.801 250.979C148.177 250.979 140.865 252.087 134.86 254.301C128.854 256.516 124.111 259.824 120.632 264.223C117.152 268.624 114.642 273.761 113.102 279.637C111.562 285.516 110.793 292.439 110.793 300.412V352.769C110.793 360.567 111.562 367.357 113.102 373.145C114.642 378.935 117.152 384.041 120.632 388.472C123.969 392.72 128.482 395.977 134.172 398.243ZM1346.66 400.085C1346.05 400.024 1345.43 399.961 1344.81 399.9H1346.66V400.085ZM1324.21 398.117C1321.11 397.88 1317.9 397.645 1314.57 397.412C1317.94 395.047 1320.59 391.771 1322.55 387.585L1324.21 398.117ZM185.435 395.007C186.032 394.615 186.605 394.208 187.151 393.787C190.445 391.248 193.125 388.104 195.189 384.352C197.252 380.603 198.714 376.601 199.576 372.348C200.283 368.871 200.7 365.056 200.828 360.907C204.545 368.871 208.321 376.933 209.179 378.653C209.218 378.729 209.258 378.816 209.303 378.912C209.304 378.913 209.304 378.915 209.306 378.917C209.307 378.919 209.307 378.92 209.307 378.921C209.471 379.275 209.677 379.757 209.915 380.341C209.915 380.34 209.915 380.34 209.915 380.34C211.065 383.153 213.004 388.397 214.886 393.591C204.547 394.048 194.724 394.521 185.435 395.007ZM1245.27 393.597C1242.04 393.453 1238.76 393.312 1235.43 393.172V370.543C1237.34 375.528 1239.01 379.853 1239.37 380.752C1239.86 381.959 1242.67 388.015 1245.27 393.597ZM1209.29 392.135C1200.13 391.793 1190.67 391.461 1180.92 391.14V323.889L1209.29 392.135ZM567.982 385.619C568.272 384.145 568.485 383.044 568.585 382.503C569.216 379.037 571.251 364.96 571.251 364.96V364.961C571.304 365.119 574.005 373.257 575.318 378.816V385.555C572.871 385.576 570.418 385.597 567.982 385.619ZM748.607 384.931C745.188 384.928 741.793 384.925 738.361 384.924C738.91 383.067 739.327 381.788 739.525 381.443C741.471 378.048 743.52 375.048 745.336 372.399C746.743 376.895 747.865 380.817 748.187 382.455C748.189 382.452 748.189 382.449 748.19 382.447C748.199 382.495 748.207 382.541 748.215 382.585C748.311 383.137 748.446 383.94 748.607 384.931ZM719.627 384.924V349.795C721.827 348.023 723.589 346.517 724.178 345.793C725.049 344.725 727.848 341.924 730.729 338.801C731.165 340.331 731.58 341.749 731.927 342.88C731.927 342.884 731.929 342.888 731.93 342.892C731.934 342.907 731.94 342.921 731.944 342.935C731.947 342.944 731.949 342.955 731.952 342.964C731.952 342.965 731.954 342.968 731.955 342.971C732.009 343.149 732.063 343.321 732.115 343.484C733.675 348.443 736.174 358.228 736.174 358.228C736.174 358.228 736.175 358.228 736.177 358.228C736.202 358.227 736.496 358.204 737 358.152C733.941 365.537 729.239 377.541 728.209 382.52C728.06 383.24 727.903 384.047 727.739 384.921C725.024 384.923 722.336 384.923 719.627 384.924ZM376.314 378.992C374.281 378.992 372.541 378.639 371.094 377.929C370.768 377.771 370.459 377.603 370.166 377.428C368.861 373.855 366.738 368.445 364.976 364.013C364.958 363.252 364.95 362.427 364.95 361.54V291.111C364.95 289.044 364.997 287.331 365.089 285.972C365.182 284.615 365.444 283.092 365.875 281.409C366.304 279.727 366.92 278.397 367.723 277.423C368.523 276.448 369.646 275.623 371.094 274.943C372.541 274.264 374.281 273.924 376.314 273.924C378.349 273.924 380.102 274.264 381.581 274.943C383.06 275.623 384.197 276.464 384.999 277.468C385.8 278.472 386.431 279.785 386.893 281.409C387.356 283.035 387.645 284.569 387.77 286.016C387.893 287.464 387.955 289.161 387.955 291.111V361.54C387.955 363.548 387.893 365.276 387.77 366.723C387.645 368.171 387.356 369.72 386.893 371.373C386.431 373.028 385.8 374.372 384.999 375.404C384.197 376.439 383.06 377.295 381.581 377.973C380.102 378.653 378.349 378.992 376.314 378.992ZM812.016 378.46C809.92 378.46 808.118 378.063 806.61 377.265C805.1 376.468 803.945 375.464 803.146 374.253C802.345 373.043 801.715 371.492 801.252 369.601C800.791 367.712 800.497 365.956 800.375 364.331C800.25 362.707 800.188 360.743 800.188 358.44V347.095H816.499L823.747 339.544V358.44C823.747 360.685 823.686 362.633 823.564 364.287C823.44 365.941 823.148 367.712 822.685 369.601C822.223 371.492 821.592 373.043 820.793 374.253C819.99 375.464 818.851 376.468 817.373 377.265C815.895 378.063 814.109 378.46 812.016 378.46ZM1023.67 377.397H1018.5V275.696H1023.58C1026.31 275.696 1028.63 275.86 1030.53 276.188C1030.35 278.033 1030.22 279.205 1030.22 279.205L1037.67 280.396C1038.65 281.955 1039.28 283.667 1039.56 285.529C1039.87 287.537 1040.03 290.401 1040.03 294.123V357.288C1040.03 359.945 1039.98 362.057 1039.89 363.623C1039.8 365.188 1039.58 366.843 1039.24 368.583C1038.9 370.325 1038.38 371.655 1037.67 372.571C1036.96 373.485 1036.01 374.357 1034.81 375.183C1033.61 376.012 1032.1 376.587 1030.28 376.911C1028.46 377.236 1026.26 377.397 1023.67 377.397ZM614.307 377.397H609.132V275.696H614.214C617.969 275.696 620.941 276.005 623.128 276.625C625.314 277.245 626.963 278.384 628.073 280.036C629.179 281.691 629.887 283.521 630.197 285.529C630.503 287.537 630.659 290.401 630.659 294.123V357.288C630.659 359.945 630.612 362.057 630.52 363.623C630.428 365.188 630.211 366.843 629.873 368.583C629.534 370.325 629.01 371.655 628.303 372.571C627.593 373.485 626.639 374.357 625.438 375.183C624.238 376.012 622.728 376.587 620.912 376.911C619.094 377.236 616.893 377.397 614.307 377.397ZM719.627 339.343V334.696H723.044C721.816 336.391 720.616 338.028 719.627 339.343ZM878.812 317.177H857.286V310.595H878.812V317.177ZM878.812 307.863H857.286V305.789C858.468 303.351 859.813 300.631 860.824 298.745C861.552 297.392 862.576 295.368 863.637 293.239C867.499 295.521 871.47 297.592 872.675 298.387C873.496 298.929 875.926 299.955 878.812 301.085V307.863ZM1146.8 305.723C1146.78 305.681 1146.76 305.631 1146.73 305.573C1146.76 305.629 1146.78 305.68 1146.8 305.723ZM341.238 262.597C343.77 257.131 346.457 251.639 348.446 248.347C348.95 249.215 349.514 250.076 350.147 250.909C350.147 250.909 357.724 251.443 365.496 251.637C361.479 252.164 357.832 253.008 354.556 254.168C349.101 256.1 344.662 258.909 341.238 262.597ZM1032.51 253.291C1031.4 253.221 1030.26 253.164 1029.09 253.121C1031.18 253.144 1032.34 253.179 1032.48 253.236C1032.49 253.24 1032.5 253.259 1032.51 253.291ZM368.611 235.873V234.484H365.535C368.001 233.103 371.459 230.992 373.962 228.769C374.269 229.649 374.486 230.439 374.537 231.072C374.537 231.072 374.635 231.161 374.849 231.297C374.119 232.029 371.648 234.383 368.611 235.873Z" fill="url(#paint0_linear)"/>
<defs>
<linearGradient id="paint0_linear" x1="730" y1="10.1347" x2="730" y2="602.976" gradientUnits="userSpaceOnUse">
<stop stop-color="#4F9AD9"/>
<stop offset="1" stop-color="#69CDC8"/>
</linearGradient>
</defs>
</svg>
